<?xml version="1.0" encoding="UTF-8" standalone="no"?>
<!DOCTYPE svg PUBLIC "-//W3C//DTD SVG 1.1//EN"
 "http://www.w3.org/Graphics/SVG/1.1/DTD/svg11.dtd">
<!-- Generated by graphviz version 7.0.6 (20230106.0513)
 -->
<!-- Title: dependency&#45;cruiser output Pages: 1 -->
<svg width="790pt" height="884pt"
 viewBox="0.00 0.00 790.00 884.00" xmlns="http://www.w3.org/2000/svg" xmlns:xlink="http://www.w3.org/1999/xlink">
<g id="graph0" class="graph" transform="scale(1 1) rotate(0) translate(4 880)">
<title>dependency&#45;cruiser output</title>
<polygon fill="white" stroke="none" points="-4,4 -4,-880 786,-880 786,4 -4,4"/>
<g id="clust1" class="cluster">
<title>cluster_src</title>
<path fill="#ffffff" stroke="black" stroke-width="2" d="M20,-8C20,-8 762,-8 762,-8 768,-8 774,-14 774,-20 774,-20 774,-856 774,-856 774,-862 768,-868 762,-868 762,-868 20,-868 20,-868 14,-868 8,-862 8,-856 8,-856 8,-20 8,-20 8,-14 14,-8 20,-8"/>
<text text-anchor="middle" x="391" y="-856.8" font-family="Helvetica,sans-Serif" font-weight="bold" font-size="9.00">src</text>
</g>
<g id="clust2" class="cluster">
<title>cluster_src/app</title>
<path fill="#ffffff" stroke="black" stroke-width="2" d="M28,-16C28,-16 451,-16 451,-16 457,-16 463,-22 463,-28 463,-28 463,-700 463,-700 463,-706 457,-712 451,-712 451,-712 28,-712 28,-712 22,-712 16,-706 16,-700 16,-700 16,-28 16,-28 16,-22 22,-16 28,-16"/>
<text text-anchor="middle" x="239.5" y="-700.8" font-family="Helvetica,sans-Serif" font-weight="bold" font-size="9.00">app</text>
</g>
<g id="clust3" class="cluster">
<title>cluster_src/app/blogs</title>
<path fill="#ffffff" stroke="black" stroke-width="2" d="M36,-230C36,-230 337,-230 337,-230 343,-230 349,-236 349,-242 349,-242 349,-364 349,-364 349,-370 343,-376 337,-376 337,-376 36,-376 36,-376 30,-376 24,-370 24,-364 24,-364 24,-242 24,-242 24,-236 30,-230 36,-230"/>
<text text-anchor="middle" x="186.5" y="-364.8" font-family="Helvetica,sans-Serif" font-weight="bold" font-size="9.00">blogs</text>
</g>
<g id="clust4" class="cluster">
<title>cluster_src/app/blogs/[blogId]</title>
<path fill="#ffffff" stroke="black" stroke-width="2" d="M44,-238C44,-238 97,-238 97,-238 103,-238 109,-244 109,-250 109,-250 109,-338 109,-338 109,-344 103,-350 97,-350 97,-350 44,-350 44,-350 38,-350 32,-344 32,-338 32,-338 32,-250 32,-250 32,-244 38,-238 44,-238"/>
<text text-anchor="middle" x="70.5" y="-338.8" font-family="Helvetica,sans-Serif" font-weight="bold" font-size="9.00">[blogId]</text>
</g>
<g id="clust5" class="cluster">
<title>cluster_src/app/blogs/components</title>
<path fill="#ffffff" stroke="black" stroke-width="2" d="M129,-268C129,-268 329,-268 329,-268 335,-268 341,-274 341,-280 341,-280 341,-338 341,-338 341,-344 335,-350 329,-350 329,-350 129,-350 129,-350 123,-350 117,-344 117,-338 117,-338 117,-280 117,-280 117,-274 123,-268 129,-268"/>
<text text-anchor="middle" x="229" y="-338.8" font-family="Helvetica,sans-Serif" font-weight="bold" font-size="9.00">components</text>
</g>
<g id="clust6" class="cluster">
<title>cluster_src/app/components</title>
<path fill="#ffffff" stroke="black" stroke-width="2" d="M376,-460C376,-460 443,-460 443,-460 449,-460 455,-466 455,-472 455,-472 455,-560 455,-560 455,-566 449,-572 443,-572 443,-572 376,-572 376,-572 370,-572 364,-566 364,-560 364,-560 364,-472 364,-472 364,-466 370,-460 376,-460"/>
<text text-anchor="middle" x="409.5" y="-560.8" font-family="Helvetica,sans-Serif" font-weight="bold" font-size="9.00">components</text>
</g>
<g id="clust7" class="cluster">
<title>cluster_src/app/login</title>
<path fill="#ffffff" stroke="black" stroke-width="2" d="M44,-574C44,-574 97,-574 97,-574 103,-574 109,-580 109,-586 109,-586 109,-674 109,-674 109,-680 103,-686 97,-686 97,-686 44,-686 44,-686 38,-686 32,-680 32,-674 32,-674 32,-586 32,-586 32,-580 38,-574 44,-574"/>
<text text-anchor="middle" x="70.5" y="-674.8" font-family="Helvetica,sans-Serif" font-weight="bold" font-size="9.00">login</text>
</g>
<g id="clust8" class="cluster">
<title>cluster_src/app/profile</title>
<path fill="#ffffff" stroke="black" stroke-width="2" d="M260,-574C260,-574 313,-574 313,-574 319,-574 325,-580 325,-586 325,-586 325,-674 325,-674 325,-680 319,-686 313,-686 313,-686 260,-686 260,-686 254,-686 248,-680 248,-674 248,-674 248,-586 248,-586 248,-580 254,-574 260,-574"/>
<text text-anchor="middle" x="286.5" y="-674.8" font-family="Helvetica,sans-Serif" font-weight="bold" font-size="9.00">profile</text>
</g>
<g id="clust10" class="cluster">
<title>cluster_src/app/users</title>
<path fill="#ffffff" stroke="black" stroke-width="2" d="M252,-410C252,-410 321,-410 321,-410 327,-410 333,-416 333,-422 333,-422 333,-544 333,-544 333,-550 327,-556 321,-556 321,-556 252,-556 252,-556 246,-556 240,-550 240,-544 240,-544 240,-422 240,-422 240,-416 246,-410 252,-410"/>
<text text-anchor="middle" x="286.5" y="-544.8" font-family="Helvetica,sans-Serif" font-weight="bold" font-size="9.00">users</text>
</g>
<g id="clust11" class="cluster">
<title>cluster_src/app/users/[userId]</title>
<path fill="#ffffff" stroke="black" stroke-width="2" d="M260,-418C260,-418 313,-418 313,-418 319,-418 325,-424 325,-430 325,-430 325,-518 325,-518 325,-524 319,-530 313,-530 313,-530 260,-530 260,-530 254,-530 248,-524 248,-518 248,-518 248,-430 248,-430 248,-424 254,-418 260,-418"/>
<text text-anchor="middle" x="286.5" y="-518.8" font-family="Helvetica,sans-Serif" font-weight="bold" font-size="9.00">[userId]</text>
</g>
<g id="clust9" class="cluster">
<title>cluster_src/app/signup</title>
<path fill="#ffffff" stroke="black" stroke-width="2" d="M44,-110C44,-110 97,-110 97,-110 103,-110 109,-116 109,-122 109,-122 109,-210 109,-210 109,-216 103,-222 97,-222 97,-222 44,-222 44,-222 38,-222 32,-216 32,-210 32,-210 32,-122 32,-122 32,-116 38,-110 44,-110"/>
<text text-anchor="middle" x="70.5" y="-210.8" font-family="Helvetica,sans-Serif" font-weight="bold" font-size="9.00">signup</text>
</g>
<g id="clust14" class="cluster">
<title>cluster_src/lib</title>
<path fill="#ffffff" stroke="black" stroke-width="2" d="M253.5,-720C253.5,-720 319.5,-720 319.5,-720 325.5,-720 331.5,-726 331.5,-732 331.5,-732 331.5,-820 331.5,-820 331.5,-826 325.5,-832 319.5,-832 319.5,-832 253.5,-832 253.5,-832 247.5,-832 241.5,-826 241.5,-820 241.5,-820 241.5,-732 241.5,-732 241.5,-726 247.5,-720 253.5,-720"/>
<text text-anchor="middle" x="286.5" y="-820.8" font-family="Helvetica,sans-Serif" font-weight="bold" font-size="9.00">lib</text>
</g>
<g id="clust12" class="cluster">
<title>cluster_src/context</title>
<path fill="#ffffff" stroke="black" stroke-width="2" d="M680,-548C680,-548 754,-548 754,-548 760,-548 766,-554 766,-560 766,-560 766,-588 766,-588 766,-594 760,-600 754,-600 754,-600 680,-600 680,-600 674,-600 668,-594 668,-588 668,-588 668,-560 668,-560 668,-554 674,-548 680,-548"/>
<text text-anchor="middle" x="717" y="-588.8" font-family="Helvetica,sans-Serif" font-weight="bold" font-size="9.00">context</text>
</g>
<g id="clust13" class="cluster">
<title>cluster_src/hooks</title>
<path fill="#ffffff" stroke="black" stroke-width="2" d="M369,-720C369,-720 648,-720 648,-720 654,-720 660,-726 660,-732 660,-732 660,-804 660,-804 660,-810 654,-816 648,-816 648,-816 369,-816 369,-816 363,-816 357,-810 357,-804 357,-804 357,-732 357,-732 357,-726 363,-720 369,-720"/>
<text text-anchor="middle" x="508.5" y="-804.8" font-family="Helvetica,sans-Serif" font-weight="bold" font-size="9.00">hooks</text>
</g>
<!-- src/app/blogs/[blogId]/error.tsx -->
<g id="node1" class="node">
<title>src/app/blogs/[blogId]/error.tsx</title>
<g id="a_node1"><a xlink:href="src/app/blogs/[blogId]/error.tsx" xlink:title="no&#45;orphans">
<path fill="#ccffcc" stroke="orange" d="M91.5,-324C91.5,-324 49.5,-324 49.5,-324 46.5,-324 43.5,-321 43.5,-318 43.5,-318 43.5,-312 43.5,-312 43.5,-309 46.5,-306 49.5,-306 49.5,-306 91.5,-306 91.5,-306 94.5,-306 97.5,-309 97.5,-312 97.5,-312 97.5,-318 97.5,-318 97.5,-321 94.5,-324 91.5,-324"/>
<text text-anchor="start" x="53.5" y="-312.8" font-family="Helvetica,sans-Serif" font-size="9.00" fill="orange">error.tsx</text>
</a>
</g>
</g>
<!-- src/app/blogs/[blogId]/loading.tsx -->
<g id="node2" class="node">
<title>src/app/blogs/[blogId]/loading.tsx</title>
<g id="a_node2"><a xlink:href="src/app/blogs/[blogId]/loading.tsx" xlink:title="no&#45;orphans">
<path fill="#ccffcc" stroke="orange" d="M95,-294C95,-294 46,-294 46,-294 43,-294 40,-291 40,-288 40,-288 40,-282 40,-282 40,-279 43,-276 46,-276 46,-276 95,-276 95,-276 98,-276 101,-279 101,-282 101,-282 101,-288 101,-288 101,-291 98,-294 95,-294"/>
<text text-anchor="start" x="48" y="-282.8" font-family="Helvetica,sans-Serif" font-size="9.00" fill="orange">loading.tsx</text>
</a>
</g>
</g>
<!-- src/app/blogs/[blogId]/page.tsx -->
<g id="node3" class="node">
<title>src/app/blogs/[blogId]/page.tsx</title>
<g id="a_node3"><a xlink:href="src/app/blogs/[blogId]/page.tsx" xlink:title="page.tsx">
<path fill="#bbfeff" stroke="black" d="M91.5,-264C91.5,-264 49.5,-264 49.5,-264 46.5,-264 43.5,-261 43.5,-258 43.5,-258 43.5,-252 43.5,-252 43.5,-249 46.5,-246 49.5,-246 49.5,-246 91.5,-246 91.5,-246 94.5,-246 97.5,-249 97.5,-252 97.5,-252 97.5,-258 97.5,-258 97.5,-261 94.5,-264 91.5,-264"/>
<text text-anchor="start" x="53" y="-252.8" font-family="Helvetica,sans-Serif" font-size="9.00">page.tsx</text>
</a>
</g>
</g>
<!-- src/app/components/CodeBlock.tsx -->
<g id="node4" class="node">
<title>src/app/components/CodeBlock.tsx</title>
<g id="a_node4"><a xlink:href="src/app/components/CodeBlock.tsx" xlink:title="CodeBlock.tsx">
<path fill="#bbfeff" stroke="black" d="M441,-546C441,-546 378,-546 378,-546 375,-546 372,-543 372,-540 372,-540 372,-534 372,-534 372,-531 375,-528 378,-528 378,-528 441,-528 441,-528 444,-528 447,-531 447,-534 447,-534 447,-540 447,-540 447,-543 444,-546 441,-546"/>
<text text-anchor="start" x="380" y="-534.8" font-family="Helvetica,sans-Serif" font-size="9.00">CodeBlock.tsx</text>
</a>
</g>
</g>
<!-- src/app/blogs/[blogId]/page.tsx&#45;&gt;src/app/components/CodeBlock.tsx -->
<g id="edge1" class="edge">
<title>src/app/blogs/[blogId]/page.tsx&#45;&gt;src/app/components/CodeBlock.tsx</title>
<path fill="none" stroke="#000000" stroke-width="2" stroke-opacity="0.200000" d="M97.84,-261.21C102.15,-263.34 106.14,-266.18 109,-270 120.11,-284.83 110.68,-335.58 117,-353 150.02,-444.09 154.85,-486.76 240,-533 277.57,-553.41 327.15,-551.82 362.78,-546.7"/>
<polygon fill="#000000" fill-opacity="0.200000" stroke="#000000" stroke-width="2" stroke-opacity="0.200000" points="362.93,-548.8 368.54,-545.8 362.29,-544.65 362.93,-548.8"/>
</g>
<!-- src/app/blogs/components/CommentSection.tsx -->
<g id="node5" class="node">
<title>src/app/blogs/components/CommentSection.tsx</title>
<g id="a_node5"><a xlink:href="src/app/blogs/components/CommentSection.tsx" xlink:title="CommentSection.tsx">
<path fill="#bbfeff" stroke="black" d="M221,-309C221,-309 131,-309 131,-309 128,-309 125,-306 125,-303 125,-303 125,-297 125,-297 125,-294 128,-291 131,-291 131,-291 221,-291 221,-291 224,-291 227,-294 227,-297 227,-297 227,-303 227,-303 227,-306 224,-309 221,-309"/>
<text text-anchor="start" x="133" y="-297.8" font-family="Helvetica,sans-Serif" font-size="9.00">CommentSection.tsx</text>
</a>
</g>
</g>
<!-- src/app/blogs/[blogId]/page.tsx&#45;&gt;src/app/blogs/components/CommentSection.tsx -->
<g id="edge2" class="edge">
<title>src/app/blogs/[blogId]/page.tsx&#45;&gt;src/app/blogs/components/CommentSection.tsx</title>
<path fill="none" stroke="#000000" stroke-width="2" stroke-opacity="0.200000" d="M95.37,-264.36C99.91,-266.19 104.61,-268.13 109,-270 121.48,-275.33 135.16,-281.49 146.81,-286.84"/>
<polygon fill="#000000" fill-opacity="0.200000" stroke="#000000" stroke-width="2" stroke-opacity="0.200000" points="145.81,-288.69 152.14,-289.3 147.57,-284.88 145.81,-288.69"/>
</g>
<!-- src/lib/blogs.tsx -->
<g id="node6" class="node">
<title>src/lib/blogs.tsx</title>
<g id="a_node6"><a xlink:href="src/lib/blogs.tsx" xlink:title="blogs.tsx">
<path fill="#bbfeff" stroke="black" d="M307.5,-806C307.5,-806 265.5,-806 265.5,-806 262.5,-806 259.5,-803 259.5,-800 259.5,-800 259.5,-794 259.5,-794 259.5,-791 262.5,-788 265.5,-788 265.5,-788 307.5,-788 307.5,-788 310.5,-788 313.5,-791 313.5,-794 313.5,-794 313.5,-800 313.5,-800 313.5,-803 310.5,-806 307.5,-806"/>
<text text-anchor="start" x="268" y="-794.8" font-family="Helvetica,sans-Serif" font-size="9.00">blogs.tsx</text>
</a>
</g>
</g>
<!-- src/app/blogs/[blogId]/page.tsx&#45;&gt;src/lib/blogs.tsx -->
<g id="edge3" class="edge">
<title>src/app/blogs/[blogId]/page.tsx&#45;&gt;src/lib/blogs.tsx</title>
<path fill="none" stroke="#000000" stroke-width="2" stroke-opacity="0.200000" d="M97.7,-260.85C102.14,-263.01 106.21,-265.96 109,-270 122.27,-289.2 106.35,-669.23 117,-690 144.01,-742.68 210.02,-772.7 250.94,-786.85"/>
<polygon fill="#000000" fill-opacity="0.200000" stroke="#000000" stroke-width="2" stroke-opacity="0.200000" points="250.04,-788.76 256.4,-788.67 251.37,-784.78 250.04,-788.76"/>
</g>
<!-- src/app/blogs/components/Comment.tsx -->
<g id="node7" class="node">
<title>src/app/blogs/components/Comment.tsx</title>
<g id="a_node7"><a xlink:href="src/app/blogs/components/Comment.tsx" xlink:title="Comment.tsx">
<path fill="#bbfeff" stroke="black" d="M316,-324C316,-324 257,-324 257,-324 254,-324 251,-321 251,-318 251,-318 251,-312 251,-312 251,-309 254,-306 257,-306 257,-306 316,-306 316,-306 319,-306 322,-309 322,-312 322,-312 322,-318 322,-318 322,-321 319,-324 316,-324"/>
<text text-anchor="start" x="259" y="-312.8" font-family="Helvetica,sans-Serif" font-size="9.00">Comment.tsx</text>
</a>
</g>
</g>
<!-- src/app/blogs/components/CommentSection.tsx&#45;&gt;src/app/blogs/components/Comment.tsx -->
<g id="edge7" class="edge">
<title>src/app/blogs/components/CommentSection.tsx&#45;&gt;src/app/blogs/components/Comment.tsx</title>
<path fill="none" stroke="#000000" stroke-width="2" stroke-opacity="0.200000" d="M227.44,-306.97C232.23,-307.64 237.06,-308.3 241.77,-308.95"/>
<polygon fill="#000000" fill-opacity="0.200000" stroke="#000000" stroke-width="2" stroke-opacity="0.200000" points="241.44,-311.03 247.67,-309.77 242.02,-306.87 241.44,-311.03"/>
</g>
<!-- src/app/blogs/components/CommentForm.tsx -->
<g id="node9" class="node">
<title>src/app/blogs/components/CommentForm.tsx</title>
<g id="a_node9"><a xlink:href="src/app/blogs/components/CommentForm.tsx" xlink:title="CommentForm.tsx">
<path fill="#bbfeff" stroke="black" d="M327,-294C327,-294 246,-294 246,-294 243,-294 240,-291 240,-288 240,-288 240,-282 240,-282 240,-279 243,-276 246,-276 246,-276 327,-276 327,-276 330,-276 333,-279 333,-282 333,-282 333,-288 333,-288 333,-291 330,-294 327,-294"/>
<text text-anchor="start" x="248" y="-282.8" font-family="Helvetica,sans-Serif" font-size="9.00">CommentForm.tsx</text>
</a>
</g>
</g>
<!-- src/app/blogs/components/CommentSection.tsx&#45;&gt;src/app/blogs/components/CommentForm.tsx -->
<g id="edge8" class="edge">
<title>src/app/blogs/components/CommentSection.tsx&#45;&gt;src/app/blogs/components/CommentForm.tsx</title>
<path fill="none" stroke="#000000" stroke-width="2" stroke-opacity="0.200000" d="M227.44,-293.03C228.59,-292.87 229.74,-292.71 230.9,-292.55"/>
<polygon fill="#000000" fill-opacity="0.200000" stroke="#000000" stroke-width="2" stroke-opacity="0.200000" points="231.06,-294.65 236.72,-291.74 230.49,-290.49 231.06,-294.65"/>
</g>
<!-- src/lib/comments.tsx -->
<g id="node10" class="node">
<title>src/lib/comments.tsx</title>
<g id="a_node10"><a xlink:href="src/lib/comments.tsx" xlink:title="comments.tsx">
<path fill="#bbfeff" stroke="black" d="M317.5,-776C317.5,-776 255.5,-776 255.5,-776 252.5,-776 249.5,-773 249.5,-770 249.5,-770 249.5,-764 249.5,-764 249.5,-761 252.5,-758 255.5,-758 255.5,-758 317.5,-758 317.5,-758 320.5,-758 323.5,-761 323.5,-764 323.5,-764 323.5,-770 323.5,-770 323.5,-773 320.5,-776 317.5,-776"/>
<text text-anchor="start" x="257.5" y="-764.8" font-family="Helvetica,sans-Serif" font-size="9.00">comments.tsx</text>
</a>
</g>
</g>
<!-- src/app/blogs/components/CommentSection.tsx&#45;&gt;src/lib/comments.tsx -->
<g id="edge9" class="edge">
<title>src/app/blogs/components/CommentSection.tsx&#45;&gt;src/lib/comments.tsx</title>
<path fill="none" stroke="#000000" stroke-width="2" stroke-opacity="0.200000" d="M223.28,-309.2C224.63,-310.33 225.88,-311.6 227,-313 257.42,-351.16 210.82,-712.89 240,-752 240.7,-752.94 241.46,-753.82 242.27,-754.64"/>
<polygon fill="#000000" fill-opacity="0.200000" stroke="#000000" stroke-width="2" stroke-opacity="0.200000" points="240.88,-756.23 246.94,-758.15 243.4,-752.87 240.88,-756.23"/>
</g>
<!-- src/app/blogs/components/Comment.tsx&#45;&gt;src/app/components/CodeBlock.tsx -->
<g id="edge4" class="edge">
<title>src/app/blogs/components/Comment.tsx&#45;&gt;src/app/components/CodeBlock.tsx</title>
<path fill="none" stroke="#000000" stroke-width="2" stroke-opacity="0.200000" d="M322.26,-314.62C332.33,-316.33 342.38,-320.17 349,-328 362.93,-344.47 343.7,-505.01 357,-522 358.87,-524.38 361.09,-526.4 363.55,-528.11"/>
<polygon fill="#000000" fill-opacity="0.200000" stroke="#000000" stroke-width="2" stroke-opacity="0.200000" points="362.56,-529.96 368.84,-530.94 364.54,-526.26 362.56,-529.96"/>
</g>
<!-- src/hooks/useAuth.tsx -->
<g id="node8" class="node">
<title>src/hooks/useAuth.tsx</title>
<g id="a_node8"><a xlink:href="src/hooks/useAuth.tsx" xlink:title="useAuth.tsx">
<path fill="#bbfeff" stroke="black" d="M646,-746C646,-746 594,-746 594,-746 591,-746 588,-743 588,-740 588,-740 588,-734 588,-734 588,-731 591,-728 594,-728 594,-728 646,-728 646,-728 649,-728 652,-731 652,-734 652,-734 652,-740 652,-740 652,-743 649,-746 646,-746"/>
<text text-anchor="start" x="596" y="-734.8" font-family="Helvetica,sans-Serif" font-size="9.00">useAuth.tsx</text>
</a>
</g>
</g>
<!-- src/app/blogs/components/Comment.tsx&#45;&gt;src/hooks/useAuth.tsx -->
<g id="edge5" class="edge">
<title>src/app/blogs/components/Comment.tsx&#45;&gt;src/hooks/useAuth.tsx</title>
<path fill="none" stroke="#000000" stroke-width="2" stroke-opacity="0.200000" d="M322.24,-314.63C360.04,-315.87 420.73,-322.79 463,-352 591.41,-440.73 614.2,-654.59 618.17,-718.6"/>
<polygon fill="#000000" fill-opacity="0.200000" stroke="#000000" stroke-width="2" stroke-opacity="0.200000" points="616.07,-718.65 618.5,-724.52 620.27,-718.42 616.07,-718.65"/>
</g>
<!-- src/context/AuthProvider.tsx -->
<g id="node17" class="node">
<title>src/context/AuthProvider.tsx</title>
<g id="a_node17"><a xlink:href="src/context/AuthProvider.tsx" xlink:title="AuthProvider.tsx">
<path fill="#bbfeff" stroke="black" d="M752,-574C752,-574 682,-574 682,-574 679,-574 676,-571 676,-568 676,-568 676,-562 676,-562 676,-559 679,-556 682,-556 682,-556 752,-556 752,-556 755,-556 758,-559 758,-562 758,-562 758,-568 758,-568 758,-571 755,-574 752,-574"/>
<text text-anchor="start" x="684" y="-562.8" font-family="Helvetica,sans-Serif" font-size="9.00">AuthProvider.tsx</text>
</a>
</g>
</g>
<!-- src/hooks/useAuth.tsx&#45;&gt;src/context/AuthProvider.tsx -->
<g id="edge24" class="edge">
<title>src/hooks/useAuth.tsx&#45;&gt;src/context/AuthProvider.tsx</title>
<path fill="none" stroke="#000000" stroke-width="2" stroke-opacity="0.200000" d="M626.24,-727.51C641.66,-699.6 686.97,-617.56 706.67,-581.89"/>
<polygon fill="#000000" fill-opacity="0.200000" stroke="#000000" stroke-width="2" stroke-opacity="0.200000" points="708.36,-583.17 709.43,-576.9 704.69,-581.14 708.36,-583.17"/>
</g>
<!-- src/app/blogs/components/CommentForm.tsx&#45;&gt;src/hooks/useAuth.tsx -->
<g id="edge6" class="edge">
<title>src/app/blogs/components/CommentForm.tsx&#45;&gt;src/hooks/useAuth.tsx</title>
<path fill="none" stroke="#000000" stroke-width="2" stroke-opacity="0.200000" d="M333.23,-281.27C398.93,-278.75 518.32,-285.39 575,-359 619.08,-416.25 619.96,-651.64 619.28,-718.95"/>
<polygon fill="#000000" fill-opacity="0.200000" stroke="#000000" stroke-width="2" stroke-opacity="0.200000" points="617.18,-718.57 619.21,-724.59 621.38,-718.62 617.18,-718.57"/>
</g>
<!-- src/hooks/useFetch.tsx -->
<g id="node27" class="node">
<title>src/hooks/useFetch.tsx</title>
<g id="a_node27"><a xlink:href="src/hooks/useFetch.tsx" xlink:title="useFetch.tsx">
<path fill="#bbfeff" stroke="black" d="M437.5,-776C437.5,-776 381.5,-776 381.5,-776 378.5,-776 375.5,-773 375.5,-770 375.5,-770 375.5,-764 375.5,-764 375.5,-761 378.5,-758 381.5,-758 381.5,-758 437.5,-758 437.5,-758 440.5,-758 443.5,-761 443.5,-764 443.5,-764 443.5,-770 443.5,-770 443.5,-773 440.5,-776 437.5,-776"/>
<text text-anchor="start" x="383.5" y="-764.8" font-family="Helvetica,sans-Serif" font-size="9.00">useFetch.tsx</text>
</a>
</g>
</g>
<!-- src/lib/comments.tsx&#45;&gt;src/hooks/useFetch.tsx -->
<g id="edge30" class="edge">
<title>src/lib/comments.tsx&#45;&gt;src/hooks/useFetch.tsx</title>
<path fill="none" stroke="#000000" stroke-width="2" stroke-opacity="0.200000" d="M323.8,-767C337.17,-767 352.41,-767 366.25,-767"/>
<polygon fill="#000000" fill-opacity="0.200000" stroke="#000000" stroke-width="2" stroke-opacity="0.200000" points="366.09,-769.1 372.09,-767 366.09,-764.9 366.09,-769.1"/>
</g>
<!-- src/app/components/Footer.tsx -->
<g id="node11" class="node">
<title>src/app/components/Footer.tsx</title>
<g id="a_node11"><a xlink:href="src/app/components/Footer.tsx" xlink:title="Footer.tsx">
<path fill="#bbfeff" stroke="black" d="M431.5,-486C431.5,-486 387.5,-486 387.5,-486 384.5,-486 381.5,-483 381.5,-480 381.5,-480 381.5,-474 381.5,-474 381.5,-471 384.5,-468 387.5,-468 387.5,-468 431.5,-468 431.5,-468 434.5,-468 437.5,-471 437.5,-474 437.5,-474 437.5,-480 437.5,-480 437.5,-483 434.5,-486 431.5,-486"/>
<text text-anchor="start" x="389.5" y="-474.8" font-family="Helvetica,sans-Serif" font-size="9.00">Footer.tsx</text>
</a>
</g>
</g>
<!-- src/app/components/Header.tsx -->
<g id="node12" class="node">
<title>src/app/components/Header.tsx</title>
<g id="a_node12"><a xlink:href="src/app/components/Header.tsx" xlink:title="Header.tsx">
<path fill="#bbfeff" stroke="black" d="M434,-516C434,-516 385,-516 385,-516 382,-516 379,-513 379,-510 379,-510 379,-504 379,-504 379,-501 382,-498 385,-498 385,-498 434,-498 434,-498 437,-498 440,-501 440,-504 440,-504 440,-510 440,-510 440,-513 437,-516 434,-516"/>
<text text-anchor="start" x="387" y="-504.8" font-family="Helvetica,sans-Serif" font-size="9.00">Header.tsx</text>
</a>
</g>
</g>
<!-- src/app/components/Header.tsx&#45;&gt;src/hooks/useAuth.tsx -->
<g id="edge10" class="edge">
<title>src/app/components/Header.tsx&#45;&gt;src/hooks/useAuth.tsx</title>
<path fill="none" stroke="#000000" stroke-width="2" stroke-opacity="0.200000" d="M440.37,-511.87C448.21,-514.1 456.32,-517.33 463,-522 539.38,-575.46 592.41,-678.57 611.34,-719.57"/>
<polygon fill="#000000" fill-opacity="0.200000" stroke="#000000" stroke-width="2" stroke-opacity="0.200000" points="609.31,-720.19 613.7,-724.79 613.14,-718.46 609.31,-720.19"/>
</g>
<!-- src/hooks/useLogout.tsx -->
<g id="node13" class="node">
<title>src/hooks/useLogout.tsx</title>
<g id="a_node13"><a xlink:href="src/hooks/useLogout.tsx" xlink:title="useLogout.tsx">
<path fill="#bbfeff" stroke="black" d="M554,-746C554,-746 492,-746 492,-746 489,-746 486,-743 486,-740 486,-740 486,-734 486,-734 486,-731 489,-728 492,-728 492,-728 554,-728 554,-728 557,-728 560,-731 560,-734 560,-734 560,-740 560,-740 560,-743 557,-746 554,-746"/>
<text text-anchor="start" x="494" y="-734.8" font-family="Helvetica,sans-Serif" font-size="9.00">useLogout.tsx</text>
</a>
</g>
</g>
<!-- src/app/components/Header.tsx&#45;&gt;src/hooks/useLogout.tsx -->
<g id="edge11" class="edge">
<title>src/app/components/Header.tsx&#45;&gt;src/hooks/useLogout.tsx</title>
<path fill="none" stroke="#000000" stroke-width="2" stroke-opacity="0.200000" d="M440.43,-509.22C448.93,-511.36 457.39,-515.2 463,-522 476.19,-538.01 466.05,-594.86 471,-615 480.57,-653.94 500.82,-696.55 512.73,-719.68"/>
<polygon fill="#000000" fill-opacity="0.200000" stroke="#000000" stroke-width="2" stroke-opacity="0.200000" points="510.8,-720.52 515.44,-724.86 514.52,-718.57 510.8,-720.52"/>
</g>
<!-- src/hooks/useLogout.tsx&#45;&gt;src/hooks/useAuth.tsx -->
<g id="edge28" class="edge">
<title>src/hooks/useLogout.tsx&#45;&gt;src/hooks/useAuth.tsx</title>
<path fill="none" stroke="#000000" stroke-width="2" stroke-opacity="0.200000" d="M560.46,-737C566.5,-737 572.8,-737 578.93,-737"/>
<polygon fill="#000000" fill-opacity="0.200000" stroke="#000000" stroke-width="2" stroke-opacity="0.200000" points="578.72,-739.1 584.72,-737 578.72,-734.9 578.72,-739.1"/>
</g>
<!-- src/app/error.tsx -->
<g id="node14" class="node">
<title>src/app/error.tsx</title>
<g id="a_node14"><a xlink:href="src/app/error.tsx" xlink:title="no&#45;orphans">
<path fill="#ccffcc" stroke="orange" d="M91.5,-102C91.5,-102 49.5,-102 49.5,-102 46.5,-102 43.5,-99 43.5,-96 43.5,-96 43.5,-90 43.5,-90 43.5,-87 46.5,-84 49.5,-84 49.5,-84 91.5,-84 91.5,-84 94.5,-84 97.5,-87 97.5,-90 97.5,-90 97.5,-96 97.5,-96 97.5,-99 94.5,-102 91.5,-102"/>
<text text-anchor="start" x="53.5" y="-90.8" font-family="Helvetica,sans-Serif" font-size="9.00" fill="orange">error.tsx</text>
</a>
</g>
</g>
<!-- src/app/globals.css -->
<g id="node15" class="node">
<title>src/app/globals.css</title>
<g id="a_node15"><a xlink:href="src/app/globals.css" xlink:title="globals.css">
<path fill="#ffffcc" stroke="black" d="M436,-424C436,-424 383,-424 383,-424 380,-424 377,-421 377,-418 377,-418 377,-412 377,-412 377,-409 380,-406 383,-406 383,-406 436,-406 436,-406 439,-406 442,-409 442,-412 442,-412 442,-418 442,-418 442,-421 439,-424 436,-424"/>
<text text-anchor="start" x="385" y="-412.8" font-family="Helvetica,sans-Serif" font-size="9.00">globals.css</text>
</a>
</g>
</g>
<!-- src/app/layout.tsx -->
<g id="node16" class="node">
<title>src/app/layout.tsx</title>
<g id="a_node16"><a xlink:href="src/app/layout.tsx" xlink:title="layout.tsx">
<path fill="#bbfeff" stroke="black" d="M307.5,-402C307.5,-402 265.5,-402 265.5,-402 262.5,-402 259.5,-399 259.5,-396 259.5,-396 259.5,-390 259.5,-390 259.5,-387 262.5,-384 265.5,-384 265.5,-384 307.5,-384 307.5,-384 310.5,-384 313.5,-387 313.5,-390 313.5,-390 313.5,-396 313.5,-396 313.5,-399 310.5,-402 307.5,-402"/>
<text text-anchor="start" x="267.5" y="-390.8" font-family="Helvetica,sans-Serif" font-size="9.00">layout.tsx</text>
</a>
</g>
</g>
<!-- src/app/layout.tsx&#45;&gt;src/app/components/Footer.tsx -->
<g id="edge12" class="edge">
<title>src/app/layout.tsx&#45;&gt;src/app/components/Footer.tsx</title>
<path fill="none" stroke="#000000" stroke-width="2" stroke-opacity="0.200000" d="M313.75,-396.18C326.23,-399.06 340.29,-404.54 349,-415 363.12,-431.95 342.08,-447.74 357,-464 361.15,-468.52 366.62,-471.57 372.44,-473.6"/>
<polygon fill="#000000" fill-opacity="0.200000" stroke="#000000" stroke-width="2" stroke-opacity="0.200000" points="371.85,-475.62 378.19,-475.14 372.93,-471.56 371.85,-475.62"/>
</g>
<!-- src/app/layout.tsx&#45;&gt;src/app/components/Header.tsx -->
<g id="edge13" class="edge">
<title>src/app/layout.tsx&#45;&gt;src/app/components/Header.tsx</title>
<path fill="none" stroke="#000000" stroke-width="2" stroke-opacity="0.200000" d="M313.7,-395.9C326.33,-398.7 340.53,-404.21 349,-415 370.24,-442.07 334.95,-465.58 357,-492 360.56,-496.27 365.27,-499.36 370.38,-501.6"/>
<polygon fill="#000000" fill-opacity="0.200000" stroke="#000000" stroke-width="2" stroke-opacity="0.200000" points="369.44,-503.5 375.8,-503.46 370.81,-499.52 369.44,-503.5"/>
</g>
<!-- src/app/layout.tsx&#45;&gt;src/app/globals.css -->
<g id="edge14" class="edge">
<title>src/app/layout.tsx&#45;&gt;src/app/globals.css</title>
<path fill="none" stroke="#000000" stroke-width="2" stroke-opacity="0.200000" d="M313.76,-397.77C329.64,-400.66 350.23,-404.41 368.15,-407.66"/>
<polygon fill="#000000" fill-opacity="0.200000" stroke="#000000" stroke-width="2" stroke-opacity="0.200000" points="367.45,-409.67 373.73,-408.68 368.2,-405.54 367.45,-409.67"/>
</g>
<!-- src/app/layout.tsx&#45;&gt;src/context/AuthProvider.tsx -->
<g id="edge15" class="edge">
<title>src/app/layout.tsx&#45;&gt;src/context/AuthProvider.tsx</title>
<path fill="none" stroke="#000000" stroke-width="2" stroke-opacity="0.200000" d="M313.82,-389.79C348.82,-386.46 412.16,-383.78 463,-400 563.64,-432.12 662.57,-515.87 700.15,-550.1"/>
<polygon fill="#000000" fill-opacity="0.200000" stroke="#000000" stroke-width="2" stroke-opacity="0.200000" points="698.37,-551.32 704.21,-553.84 701.22,-548.23 698.37,-551.32"/>
</g>
<!-- src/app/loading.tsx -->
<g id="node18" class="node">
<title>src/app/loading.tsx</title>
<g id="a_node18"><a xlink:href="src/app/loading.tsx" xlink:title="no&#45;orphans">
<path fill="#ccffcc" stroke="orange" d="M95,-72C95,-72 46,-72 46,-72 43,-72 40,-69 40,-66 40,-66 40,-60 40,-60 40,-57 43,-54 46,-54 46,-54 95,-54 95,-54 98,-54 101,-57 101,-60 101,-60 101,-66 101,-66 101,-69 98,-72 95,-72"/>
<text text-anchor="start" x="48" y="-60.8" font-family="Helvetica,sans-Serif" font-size="9.00" fill="orange">loading.tsx</text>
</a>
</g>
</g>
<!-- src/app/login/error.tsx -->
<g id="node19" class="node">
<title>src/app/login/error.tsx</title>
<g id="a_node19"><a xlink:href="src/app/login/error.tsx" xlink:title="no&#45;orphans">
<path fill="#ccffcc" stroke="orange" d="M91.5,-660C91.5,-660 49.5,-660 49.5,-660 46.5,-660 43.5,-657 43.5,-654 43.5,-654 43.5,-648 43.5,-648 43.5,-645 46.5,-642 49.5,-642 49.5,-642 91.5,-642 91.5,-642 94.5,-642 97.5,-645 97.5,-648 97.5,-648 97.5,-654 97.5,-654 97.5,-657 94.5,-660 91.5,-660"/>
<text text-anchor="start" x="53.5" y="-648.8" font-family="Helvetica,sans-Serif" font-size="9.00" fill="orange">error.tsx</text>
</a>
</g>
</g>
<!-- src/app/login/loading.tsx -->
<g id="node20" class="node">
<title>src/app/login/loading.tsx</title>
<g id="a_node20"><a xlink:href="src/app/login/loading.tsx" xlink:title="no&#45;orphans">
<path fill="#ccffcc" stroke="orange" d="M95,-630C95,-630 46,-630 46,-630 43,-630 40,-627 40,-624 40,-624 40,-618 40,-618 40,-615 43,-612 46,-612 46,-612 95,-612 95,-612 98,-612 101,-615 101,-618 101,-618 101,-624 101,-624 101,-627 98,-630 95,-630"/>
<text text-anchor="start" x="48" y="-618.8" font-family="Helvetica,sans-Serif" font-size="9.00" fill="orange">loading.tsx</text>
</a>
</g>
</g>
<!-- src/app/login/page.tsx -->
<g id="node21" class="node">
<title>src/app/login/page.tsx</title>
<g id="a_node21"><a xlink:href="src/app/login/page.tsx" xlink:title="page.tsx">
<path fill="#bbfeff" stroke="black" d="M91.5,-600C91.5,-600 49.5,-600 49.5,-600 46.5,-600 43.5,-597 43.5,-594 43.5,-594 43.5,-588 43.5,-588 43.5,-585 46.5,-582 49.5,-582 49.5,-582 91.5,-582 91.5,-582 94.5,-582 97.5,-585 97.5,-588 97.5,-588 97.5,-594 97.5,-594 97.5,-597 94.5,-600 91.5,-600"/>
<text text-anchor="start" x="53" y="-588.8" font-family="Helvetica,sans-Serif" font-size="9.00">page.tsx</text>
</a>
</g>
</g>
<!-- src/app/login/page.tsx&#45;&gt;src/hooks/useAuth.tsx -->
<g id="edge16" class="edge">
<title>src/app/login/page.tsx&#45;&gt;src/hooks/useAuth.tsx</title>
<path fill="none" stroke="#000000" stroke-width="2" stroke-opacity="0.200000" d="M97.95,-597.13C102.25,-599.26 106.21,-602.14 109,-606 126.08,-629.64 103.54,-711.12 117,-737 157.6,-815.08 197.5,-841 285.5,-841 285.5,-841 285.5,-841 410.5,-841 484.39,-841 514.29,-859.11 575,-817 596.39,-802.16 608.45,-773.43 614.34,-754.74"/>
<polygon fill="#000000" fill-opacity="0.200000" stroke="#000000" stroke-width="2" stroke-opacity="0.200000" points="616.31,-755.5 615.97,-749.15 612.27,-754.33 616.31,-755.5"/>
</g>
<!-- src/app/page.tsx -->
<g id="node22" class="node">
<title>src/app/page.tsx</title>
<g id="a_node22"><a xlink:href="src/app/page.tsx" xlink:title="page.tsx">
<path fill="#bbfeff" stroke="black" d="M91.5,-42C91.5,-42 49.5,-42 49.5,-42 46.5,-42 43.5,-39 43.5,-36 43.5,-36 43.5,-30 43.5,-30 43.5,-27 46.5,-24 49.5,-24 49.5,-24 91.5,-24 91.5,-24 94.5,-24 97.5,-27 97.5,-30 97.5,-30 97.5,-36 97.5,-36 97.5,-39 94.5,-42 91.5,-42"/>
<text text-anchor="start" x="53" y="-30.8" font-family="Helvetica,sans-Serif" font-size="9.00">page.tsx</text>
</a>
</g>
</g>
<!-- src/app/page.tsx&#45;&gt;src/lib/blogs.tsx -->
<g id="edge17" class="edge">
<title>src/app/page.tsx&#45;&gt;src/lib/blogs.tsx</title>
<path fill="none" stroke="#000000" stroke-width="2" stroke-opacity="0.200000" d="M97.68,-38.87C102.12,-41.03 106.2,-43.97 109,-48 118.69,-61.91 114.1,-336.3 117,-353 143.78,-506.98 191.82,-534.72 227,-687 231.8,-707.76 226.37,-765.62 240,-782 242.98,-785.58 246.84,-788.32 251.05,-790.4"/>
<polygon fill="#000000" fill-opacity="0.200000" stroke="#000000" stroke-width="2" stroke-opacity="0.200000" points="250.26,-792.35 256.61,-792.56 251.78,-788.43 250.26,-792.35"/>
</g>
<!-- src/app/profile/error.tsx -->
<g id="node23" class="node">
<title>src/app/profile/error.tsx</title>
<g id="a_node23"><a xlink:href="src/app/profile/error.tsx" xlink:title="no&#45;orphans">
<path fill="#ccffcc" stroke="orange" d="M307.5,-660C307.5,-660 265.5,-660 265.5,-660 262.5,-660 259.5,-657 259.5,-654 259.5,-654 259.5,-648 259.5,-648 259.5,-645 262.5,-642 265.5,-642 265.5,-642 307.5,-642 307.5,-642 310.5,-642 313.5,-645 313.5,-648 313.5,-648 313.5,-654 313.5,-654 313.5,-657 310.5,-660 307.5,-660"/>
<text text-anchor="start" x="269.5" y="-648.8" font-family="Helvetica,sans-Serif" font-size="9.00" fill="orange">error.tsx</text>
</a>
</g>
</g>
<!-- src/app/profile/loading.tsx -->
<g id="node24" class="node">
<title>src/app/profile/loading.tsx</title>
<g id="a_node24"><a xlink:href="src/app/profile/loading.tsx" xlink:title="no&#45;orphans">
<path fill="#ccffcc" stroke="orange" d="M311,-630C311,-630 262,-630 262,-630 259,-630 256,-627 256,-624 256,-624 256,-618 256,-618 256,-615 259,-612 262,-612 262,-612 311,-612 311,-612 314,-612 317,-615 317,-618 317,-618 317,-624 317,-624 317,-627 314,-630 311,-630"/>
<text text-anchor="start" x="264" y="-618.8" font-family="Helvetica,sans-Serif" font-size="9.00" fill="orange">loading.tsx</text>
</a>
</g>
</g>
<!-- src/app/profile/page.tsx -->
<g id="node25" class="node">
<title>src/app/profile/page.tsx</title>
<g id="a_node25"><a xlink:href="src/app/profile/page.tsx" xlink:title="page.tsx">
<path fill="#bbfeff" stroke="black" d="M307.5,-600C307.5,-600 265.5,-600 265.5,-600 262.5,-600 259.5,-597 259.5,-594 259.5,-594 259.5,-588 259.5,-588 259.5,-585 262.5,-582 265.5,-582 265.5,-582 307.5,-582 307.5,-582 310.5,-582 313.5,-585 313.5,-588 313.5,-588 313.5,-594 313.5,-594 313.5,-597 310.5,-600 307.5,-600"/>
<text text-anchor="start" x="269" y="-588.8" font-family="Helvetica,sans-Serif" font-size="9.00">page.tsx</text>
</a>
</g>
</g>
<!-- src/app/profile/page.tsx&#45;&gt;src/app/components/CodeBlock.tsx -->
<g id="edge21" class="edge">
<title>src/app/profile/page.tsx&#45;&gt;src/app/components/CodeBlock.tsx</title>
<path fill="none" stroke="#000000" stroke-width="2" stroke-opacity="0.200000" d="M313.87,-582.54C324.88,-578.76 337.71,-574.02 349,-569 361.13,-563.61 374.16,-556.73 384.93,-550.73"/>
<polygon fill="#000000" fill-opacity="0.200000" stroke="#000000" stroke-width="2" stroke-opacity="0.200000" points="385.84,-552.63 390.03,-547.85 383.77,-548.97 385.84,-552.63"/>
</g>
<!-- src/app/profile/page.tsx&#45;&gt;src/hooks/useAuth.tsx -->
<g id="edge18" class="edge">
<title>src/app/profile/page.tsx&#45;&gt;src/hooks/useAuth.tsx</title>
<path fill="none" stroke="#000000" stroke-width="2" stroke-opacity="0.200000" d="M313.72,-590.55C326.35,-591.82 340.55,-595.73 349,-606 361.44,-621.12 343.7,-767.64 357,-782 422.97,-853.24 488.22,-839.54 575,-796 592.21,-787.36 604.41,-768.45 611.53,-754.35"/>
<polygon fill="#000000" fill-opacity="0.200000" stroke="#000000" stroke-width="2" stroke-opacity="0.200000" points="613.36,-755.39 614.02,-749.06 609.56,-753.6 613.36,-755.39"/>
</g>
<!-- src/hooks/useFailedAuth.tsx -->
<g id="node26" class="node">
<title>src/hooks/useFailedAuth.tsx</title>
<g id="a_node26"><a xlink:href="src/hooks/useFailedAuth.tsx" xlink:title="useFailedAuth.tsx">
<path fill="#bbfeff" stroke="black" d="M448,-746C448,-746 371,-746 371,-746 368,-746 365,-743 365,-740 365,-740 365,-734 365,-734 365,-731 368,-728 371,-728 371,-728 448,-728 448,-728 451,-728 454,-731 454,-734 454,-734 454,-740 454,-740 454,-743 451,-746 448,-746"/>
<text text-anchor="start" x="373" y="-734.8" font-family="Helvetica,sans-Serif" font-size="9.00">useFailedAuth.tsx</text>
</a>
</g>
</g>
<!-- src/app/profile/page.tsx&#45;&gt;src/hooks/useFailedAuth.tsx -->
<g id="edge19" class="edge">
<title>src/app/profile/page.tsx&#45;&gt;src/hooks/useFailedAuth.tsx</title>
<path fill="none" stroke="#000000" stroke-width="2" stroke-opacity="0.200000" d="M313.75,-592.25C325.64,-594.02 339.18,-597.87 349,-606 384.6,-635.49 399.82,-690.81 405.53,-719.2"/>
<polygon fill="#000000" fill-opacity="0.200000" stroke="#000000" stroke-width="2" stroke-opacity="0.200000" points="403.4,-719.23 406.56,-724.74 407.53,-718.46 403.4,-719.23"/>
</g>
<!-- src/app/profile/page.tsx&#45;&gt;src/hooks/useFetch.tsx -->
<g id="edge20" class="edge">
<title>src/app/profile/page.tsx&#45;&gt;src/hooks/useFetch.tsx</title>
<path fill="none" stroke="#000000" stroke-width="2" stroke-opacity="0.200000" d="M313.99,-590.61C326.53,-591.93 340.57,-595.86 349,-606 369.76,-630.99 336.8,-726.55 357,-752 359.72,-755.42 363.17,-758.09 366.99,-760.17"/>
<polygon fill="#000000" fill-opacity="0.200000" stroke="#000000" stroke-width="2" stroke-opacity="0.200000" points="366.11,-762.08 372.46,-762.49 367.75,-758.21 366.11,-762.08"/>
</g>
<!-- src/hooks/useFailedAuth.tsx&#45;&gt;src/hooks/useLogout.tsx -->
<g id="edge25" class="edge">
<title>src/hooks/useFailedAuth.tsx&#45;&gt;src/hooks/useLogout.tsx</title>
<path fill="none" stroke="#000000" stroke-width="2" stroke-opacity="0.200000" d="M454.25,-737C461.7,-737 469.46,-737 476.95,-737"/>
<polygon fill="#000000" fill-opacity="0.200000" stroke="#000000" stroke-width="2" stroke-opacity="0.200000" points="476.55,-739.1 482.55,-737 476.55,-734.9 476.55,-739.1"/>
</g>
<!-- src/hooks/useFetch.tsx&#45;&gt;src/hooks/useAuth.tsx -->
<g id="edge26" class="edge">
<title>src/hooks/useFetch.tsx&#45;&gt;src/hooks/useAuth.tsx</title>
<path fill="none" stroke="#000000" stroke-width="2" stroke-opacity="0.200000" d="M443.93,-766.27C477.41,-765 530.26,-761.52 575,-752 578.64,-751.22 582.4,-750.24 586.11,-749.15"/>
<polygon fill="#000000" fill-opacity="0.200000" stroke="#000000" stroke-width="2" stroke-opacity="0.200000" points="586.65,-751.18 591.74,-747.37 585.38,-747.18 586.65,-751.18"/>
</g>
<!-- src/hooks/useRefreshToken.tsx -->
<g id="node35" class="node">
<title>src/hooks/useRefreshToken.tsx</title>
<g id="a_node35"><a xlink:href="src/hooks/useRefreshToken.tsx" xlink:title="useRefreshToken.tsx">
<path fill="#bbfeff" stroke="black" d="M569,-790C569,-790 477,-790 477,-790 474,-790 471,-787 471,-784 471,-784 471,-778 471,-778 471,-775 474,-772 477,-772 477,-772 569,-772 569,-772 572,-772 575,-775 575,-778 575,-778 575,-784 575,-784 575,-787 572,-790 569,-790"/>
<text text-anchor="start" x="479" y="-778.8" font-family="Helvetica,sans-Serif" font-size="9.00">useRefreshToken.tsx</text>
</a>
</g>
</g>
<!-- src/hooks/useFetch.tsx&#45;&gt;src/hooks/useRefreshToken.tsx -->
<g id="edge27" class="edge">
<title>src/hooks/useFetch.tsx&#45;&gt;src/hooks/useRefreshToken.tsx</title>
<path fill="none" stroke="#000000" stroke-width="2" stroke-opacity="0.200000" d="M443.95,-771.2C449.77,-771.93 455.98,-772.71 462.26,-773.5"/>
<polygon fill="#000000" fill-opacity="0.200000" stroke="#000000" stroke-width="2" stroke-opacity="0.200000" points="461.62,-775.53 467.83,-774.2 462.14,-771.37 461.62,-775.53"/>
</g>
<!-- src/app/signup/error.tsx -->
<g id="node28" class="node">
<title>src/app/signup/error.tsx</title>
<g id="a_node28"><a xlink:href="src/app/signup/error.tsx" xlink:title="no&#45;orphans">
<path fill="#ccffcc" stroke="orange" d="M91.5,-196C91.5,-196 49.5,-196 49.5,-196 46.5,-196 43.5,-193 43.5,-190 43.5,-190 43.5,-184 43.5,-184 43.5,-181 46.5,-178 49.5,-178 49.5,-178 91.5,-178 91.5,-178 94.5,-178 97.5,-181 97.5,-184 97.5,-184 97.5,-190 97.5,-190 97.5,-193 94.5,-196 91.5,-196"/>
<text text-anchor="start" x="53.5" y="-184.8" font-family="Helvetica,sans-Serif" font-size="9.00" fill="orange">error.tsx</text>
</a>
</g>
</g>
<!-- src/app/signup/loading.tsx -->
<g id="node29" class="node">
<title>src/app/signup/loading.tsx</title>
<g id="a_node29"><a xlink:href="src/app/signup/loading.tsx" xlink:title="no&#45;orphans">
<path fill="#ccffcc" stroke="orange" d="M95,-166C95,-166 46,-166 46,-166 43,-166 40,-163 40,-160 40,-160 40,-154 40,-154 40,-151 43,-148 46,-148 46,-148 95,-148 95,-148 98,-148 101,-151 101,-154 101,-154 101,-160 101,-160 101,-163 98,-166 95,-166"/>
<text text-anchor="start" x="48" y="-154.8" font-family="Helvetica,sans-Serif" font-size="9.00" fill="orange">loading.tsx</text>
</a>
</g>
</g>
<!-- src/app/signup/page.tsx -->
<g id="node30" class="node">
<title>src/app/signup/page.tsx</title>
<g id="a_node30"><a xlink:href="src/app/signup/page.tsx" xlink:title="no&#45;orphans">
<path fill="#ccffcc" stroke="orange" d="M91.5,-136C91.5,-136 49.5,-136 49.5,-136 46.5,-136 43.5,-133 43.5,-130 43.5,-130 43.5,-124 43.5,-124 43.5,-121 46.5,-118 49.5,-118 49.5,-118 91.5,-118 91.5,-118 94.5,-118 97.5,-121 97.5,-124 97.5,-124 97.5,-130 97.5,-130 97.5,-133 94.5,-136 91.5,-136"/>
<text text-anchor="start" x="53" y="-124.8" font-family="Helvetica,sans-Serif" font-size="9.00" fill="orange">page.tsx</text>
</a>
</g>
</g>
<!-- src/app/users/[userId]/error.tsx -->
<g id="node31" class="node">
<title>src/app/users/[userId]/error.tsx</title>
<g id="a_node31"><a xlink:href="src/app/users/[userId]/error.tsx" xlink:title="no&#45;orphans">
<path fill="#ccffcc" stroke="orange" d="M307.5,-504C307.5,-504 265.5,-504 265.5,-504 262.5,-504 259.5,-501 259.5,-498 259.5,-498 259.5,-492 259.5,-492 259.5,-489 262.5,-486 265.5,-486 265.5,-486 307.5,-486 307.5,-486 310.5,-486 313.5,-489 313.5,-492 313.5,-492 313.5,-498 313.5,-498 313.5,-501 310.5,-504 307.5,-504"/>
<text text-anchor="start" x="269.5" y="-492.8" font-family="Helvetica,sans-Serif" font-size="9.00" fill="orange">error.tsx</text>
</a>
</g>
</g>
<!-- src/app/users/[userId]/loading.tsx -->
<g id="node32" class="node">
<title>src/app/users/[userId]/loading.tsx</title>
<g id="a_node32"><a xlink:href="src/app/users/[userId]/loading.tsx" xlink:title="no&#45;orphans">
<path fill="#ccffcc" stroke="orange" d="M311,-474C311,-474 262,-474 262,-474 259,-474 256,-471 256,-468 256,-468 256,-462 256,-462 256,-459 259,-456 262,-456 262,-456 311,-456 311,-456 314,-456 317,-459 317,-462 317,-462 317,-468 317,-468 317,-471 314,-474 311,-474"/>
<text text-anchor="start" x="264" y="-462.8" font-family="Helvetica,sans-Serif" font-size="9.00" fill="orange">loading.tsx</text>
</a>
</g>
</g>
<!-- src/app/users/[userId]/page.tsx -->
<g id="node33" class="node">
<title>src/app/users/[userId]/page.tsx</title>
<g id="a_node33"><a xlink:href="src/app/users/[userId]/page.tsx" xlink:title="page.tsx">
<path fill="#bbfeff" stroke="black" d="M307.5,-444C307.5,-444 265.5,-444 265.5,-444 262.5,-444 259.5,-441 259.5,-438 259.5,-438 259.5,-432 259.5,-432 259.5,-429 262.5,-426 265.5,-426 265.5,-426 307.5,-426 307.5,-426 310.5,-426 313.5,-429 313.5,-432 313.5,-432 313.5,-438 313.5,-438 313.5,-441 310.5,-444 307.5,-444"/>
<text text-anchor="start" x="269" y="-432.8" font-family="Helvetica,sans-Serif" font-size="9.00">page.tsx</text>
</a>
</g>
</g>
<!-- src/app/users/[userId]/page.tsx&#45;&gt;src/app/components/CodeBlock.tsx -->
<g id="edge22" class="edge">
<title>src/app/users/[userId]/page.tsx&#45;&gt;src/app/components/CodeBlock.tsx</title>
<path fill="none" stroke="#000000" stroke-width="2" stroke-opacity="0.200000" d="M313.76,-434.82C326.24,-436.18 340.29,-440.09 349,-450 370.26,-474.18 336.28,-497.35 357,-522 358.92,-524.28 361.16,-526.23 363.62,-527.88"/>
<polygon fill="#000000" fill-opacity="0.200000" stroke="#000000" stroke-width="2" stroke-opacity="0.200000" points="362.55,-529.7 368.84,-530.63 364.51,-525.98 362.55,-529.7"/>
</g>
<!-- src/lib/users.tsx -->
<g id="node34" class="node">
<title>src/lib/users.tsx</title>
<g id="a_node34"><a xlink:href="src/lib/users.tsx" xlink:title="users.tsx">
<path fill="#bbfeff" stroke="black" d="M307.5,-746C307.5,-746 265.5,-746 265.5,-746 262.5,-746 259.5,-743 259.5,-740 259.5,-740 259.5,-734 259.5,-734 259.5,-731 262.5,-728 265.5,-728 265.5,-728 307.5,-728 307.5,-728 310.5,-728 313.5,-731 313.5,-734 313.5,-734 313.5,-740 313.5,-740 313.5,-743 310.5,-746 307.5,-746"/>
<text text-anchor="start" x="267.5" y="-734.8" font-family="Helvetica,sans-Serif" font-size="9.00">users.tsx</text>
</a>
</g>
</g>
<!-- src/app/users/[userId]/page.tsx&#45;&gt;src/lib/users.tsx -->
<g id="edge23" class="edge">
<title>src/app/users/[userId]/page.tsx&#45;&gt;src/lib/users.tsx</title>
<path fill="none" stroke="#000000" stroke-width="2" stroke-opacity="0.200000" d="M259.28,-437.82C248.65,-440.56 237.95,-445.85 233.5,-456 228.44,-467.55 228.73,-671.33 233.5,-683 240,-698.91 253.7,-712.66 265.55,-722.31"/>
<polygon fill="#000000" fill-opacity="0.200000" stroke="#000000" stroke-width="2" stroke-opacity="0.200000" points="264.17,-723.9 270.2,-725.91 266.74,-720.58 264.17,-723.9"/>
</g>
<!-- src/hooks/useRefreshToken.tsx&#45;&gt;src/hooks/useAuth.tsx -->
<g id="edge29" class="edge">
<title>src/hooks/useRefreshToken.tsx&#45;&gt;src/hooks/useAuth.tsx</title>
<path fill="none" stroke="#000000" stroke-width="2" stroke-opacity="0.200000" d="M553.79,-771.58C560.85,-769.05 568.28,-766.14 575,-763 582.4,-759.55 590.16,-755.22 597.07,-751.09"/>
<polygon fill="#000000" fill-opacity="0.200000" stroke="#000000" stroke-width="2" stroke-opacity="0.200000" points="598.12,-752.91 602.14,-747.98 595.93,-749.33 598.12,-752.91"/>
</g>
</g>
</svg>
